<?xml version="1.0" encoding="utf-8"?>
<!-- Generator: Adobe Illustrator 17.1.0, SVG Export Plug-In . SVG Version: 6.00 Build 0)  -->
<!DOCTYPE svg PUBLIC "-//W3C//DTD SVG 1.1//EN" "http://www.w3.org/Graphics/SVG/1.1/DTD/svg11.dtd">
<svg version="1.1" id="Layer_1" xmlns="http://www.w3.org/2000/svg" xmlns:xlink="http://www.w3.org/1999/xlink" x="0px" y="0px"
	 viewBox="0 0 364.29 50.355" enable-background="new 0 0 364.29 50.355" xml:space="preserve">
<g>
	<path fill="#FFFFFF" d="M36.612,10.365c0,4.895-3.921,8.863-8.756,8.863c-4.835,0-8.756-3.969-8.756-8.863s3.921-8.863,8.756-8.863
		C32.691,1.502,36.612,5.47,36.612,10.365"/>
	<path fill="#FFFFFF" d="M39.28,23.816c1.204,7.582,1.905,10.877-0.062,13.507c-1.904,2.547-12.156-1.047-16.126-1.851
		c-0.808-0.163-1.224-0.097-1.224-0.097l-4.803,1.23l-5.894-0.997c-0.051-0.028-0.404,0.327,0.336,0.924
		c1.856,1.498,6.568,3.69,10.12,1.206c0.73-0.511,2.965,0.282,4.388,0.663c6.388,1.708,11.643,3.456,14.485,1.593
		c4.303-2.82,0.504-15.976,0.019-17.391C40.126,23.028,39.712,23.432,39.28,23.816z"/>
	<path fill="#FFFFFF" d="M17.23,34.019l-2.745-5.043c-0.04-0.072,0.017-0.157,0.097-0.145l14.525,2.118
		c0.108,0.015,0.192,0.107,0.2,0.216l0.016,0.229c0.008,0.11-0.064,0.208-0.17,0.23L17.48,34.137
		C17.382,34.158,17.279,34.11,17.23,34.019"/>
	<path fill="#FFFFFF" d="M16.191,34.39l-8.327-1.284c-0.076-0.012-0.142-0.061-0.176-0.132L0.024,18.408
		c-0.082-0.169,0.056-0.355,0.238-0.319l7.995,1.112c0.071,0.014,0.132,0.06,0.165,0.125l7.995,14.738
		C16.502,34.23,16.372,34.417,16.191,34.39"/>
	<g>
		<path fill="#FFFFFF" d="M50.623,34.583c-1.567-16.592-8.448-21.059-9.887-21.615c-0.126,0.644-0.299,1.271-0.513,1.877
			c0.001,0.001,0.001,0.001,0.002,0.002c2.525,1.665,6.767,5.925,8.139,19.767v0.101c0.088,1.51,0.162,2.842,0.186,4.25
			c0.781-0.58,1.539-1.191,2.269-1.834C50.711,35.994,50.773,36.178,50.623,34.583z"/>
	</g>
</g>
<g>
	<path fill="#FFFFFF" d="M95.162,25.501c0,1.762-0.216,3.46-0.647,5.095c-0.431,1.636-1.124,3.082-2.076,4.34
		c-0.953,1.259-2.183,2.265-3.693,3.019c-1.51,0.755-3.343,1.132-5.499,1.132c-2.121,0-3.936-0.36-5.445-1.078
		c-1.51-0.719-2.732-1.68-3.666-2.884c-0.935-1.204-1.618-2.623-2.049-4.259c-0.431-1.635-0.647-3.37-0.647-5.203
		c0-1.797,0.251-3.504,0.755-5.122c0.503-1.618,1.258-3.027,2.264-4.232c1.006-1.204,2.255-2.165,3.747-2.884
		c1.491-0.719,3.243-1.078,5.256-1.078c2.084,0,3.873,0.36,5.364,1.078c1.491,0.719,2.704,1.68,3.639,2.884
		c0.934,1.205,1.617,2.597,2.049,4.178C94.947,22.069,95.162,23.74,95.162,25.501z M90.31,25.555c0-1.114-0.099-2.219-0.296-3.316
		c-0.198-1.096-0.548-2.084-1.051-2.965c-0.504-0.88-1.204-1.59-2.103-2.13c-0.899-0.539-2.067-0.809-3.504-0.809
		c-1.366,0-2.507,0.27-3.424,0.809c-0.917,0.539-1.644,1.249-2.183,2.13c-0.539,0.881-0.926,1.869-1.159,2.965
		c-0.234,1.097-0.35,2.202-0.35,3.316c0,1.114,0.098,2.237,0.296,3.369c0.197,1.132,0.566,2.166,1.105,3.1
		c0.539,0.935,1.258,1.698,2.157,2.291c0.898,0.593,2.049,0.89,3.45,0.89c1.437,0,2.623-0.296,3.558-0.89
		c0.934-0.593,1.653-1.348,2.156-2.264c0.503-0.917,0.853-1.949,1.051-3.1C90.211,27.801,90.31,26.669,90.31,25.555z"/>
	<path fill="#FFFFFF" d="M98.073,12.831c0.287-0.035,0.512-0.054,0.674-0.054c0.162,0,0.26,0,0.297,0
		c0.826,0,1.572,0.207,2.237,0.62c0.665,0.414,1.069,1.105,1.213,2.076c0.503-0.755,1.258-1.464,2.264-2.13
		c1.006-0.665,2.174-0.998,3.504-0.998c0.395,0,0.817,0.036,1.267,0.108c0.449,0.073,0.871,0.189,1.267,0.351
		c0.395,0.161,0.719,0.386,0.971,0.674c0.251,0.288,0.377,0.665,0.377,1.132c0,0.575-0.144,1.195-0.431,1.86
		c-0.288,0.665-0.575,1.213-0.863,1.644c-0.468-0.431-0.971-0.763-1.51-0.997c-0.539-0.233-1.222-0.351-2.049-0.351
		c-0.612,0-1.195,0.1-1.752,0.297c-0.558,0.198-1.051,0.468-1.483,0.809c-0.431,0.342-0.773,0.728-1.024,1.159
		c-0.252,0.431-0.377,0.881-0.377,1.348v17.899h-4.583V12.831z"/>
	<path fill="#FFFFFF" d="M130.799,36.121c-0.288,0.288-0.647,0.612-1.078,0.971c-0.431,0.36-0.943,0.683-1.536,0.971
		c-0.593,0.287-1.267,0.53-2.022,0.728c-0.755,0.197-1.582,0.296-2.48,0.296c-1.402,0-2.749-0.234-4.043-0.701
		c-1.294-0.467-2.435-1.213-3.423-2.237c-0.989-1.024-1.771-2.372-2.345-4.043c-0.575-1.671-0.863-3.711-0.863-6.119
		c0-2.372,0.296-4.421,0.889-6.146c0.593-1.725,1.383-3.135,2.372-4.232c0.988-1.096,2.138-1.914,3.45-2.453
		c1.312-0.539,2.669-0.809,4.07-0.809c1.618,0,2.992,0.27,4.124,0.809c1.132,0.539,2.057,1.151,2.777,1.833V0.054
		C130.942,0.018,131.149,0,131.311,0c0.162,0,0.278,0,0.35,0c1.078,0,1.949,0.27,2.615,0.809c0.665,0.539,0.997,1.492,0.997,2.857
		v34.612h-4.475V36.121z M130.691,19.031h0.054c-0.216-0.216-0.494-0.476-0.836-0.782c-0.342-0.305-0.773-0.611-1.294-0.917
		c-0.522-0.305-1.124-0.557-1.806-0.755c-0.683-0.197-1.456-0.296-2.318-0.296c-2.049,0-3.666,0.764-4.852,2.291
		c-1.186,1.528-1.779,3.819-1.779,6.874c0,1.402,0.108,2.696,0.324,3.882c0.216,1.186,0.593,2.22,1.132,3.1
		c0.539,0.881,1.249,1.563,2.13,2.049c0.88,0.485,1.968,0.728,3.262,0.728c0.863,0,1.662-0.108,2.399-0.324
		c0.736-0.216,1.375-0.485,1.914-0.809c0.539-0.324,0.952-0.701,1.24-1.132c0.287-0.431,0.431-0.863,0.431-1.294V19.031z"/>
	<path fill="#FFFFFF" d="M139.586,0.054C139.837,0.018,140.044,0,140.206,0c0.162,0,0.278,0,0.35,0c1.078,0,1.949,0.27,2.615,0.809
		c0.665,0.539,0.997,1.492,0.997,2.857v11.43c0.719-0.719,1.671-1.356,2.857-1.914c1.186-0.557,2.696-0.836,4.529-0.836
		c1.402,0,2.723,0.234,3.963,0.701c1.24,0.468,2.336,1.213,3.289,2.237c0.952,1.024,1.707,2.354,2.264,3.99
		c0.557,1.636,0.836,3.639,0.836,6.011c0,2.696-0.333,4.933-0.997,6.712c-0.665,1.779-1.528,3.19-2.588,4.232
		c-1.06,1.043-2.237,1.779-3.531,2.21c-1.294,0.431-2.552,0.647-3.774,0.647c-1.043,0-1.95-0.108-2.723-0.324
		c-0.773-0.216-1.447-0.477-2.022-0.782c-0.576-0.305-1.043-0.629-1.402-0.971c-0.36-0.341-0.629-0.638-0.809-0.89v2.157h-4.475
		V0.054z M144.169,32.186c0.216,0.288,0.503,0.602,0.863,0.943c0.359,0.342,0.799,0.656,1.321,0.943
		c0.52,0.288,1.114,0.539,1.779,0.755c0.665,0.216,1.375,0.323,2.13,0.323c2.264,0,3.953-0.817,5.068-2.453
		c1.114-1.635,1.671-4.016,1.671-7.143c0-1.294-0.117-2.515-0.35-3.666c-0.234-1.15-0.612-2.138-1.132-2.965
		c-0.521-0.826-1.222-1.482-2.103-1.968c-0.881-0.485-1.968-0.728-3.262-0.728c-1.762,0-3.199,0.378-4.313,1.132
		c-1.114,0.755-1.671,1.654-1.671,2.696V32.186z"/>
	<path fill="#FFFFFF" d="M188.376,25.501c0,1.762-0.216,3.46-0.647,5.095c-0.431,1.636-1.124,3.082-2.076,4.34
		c-0.953,1.259-2.183,2.265-3.693,3.019c-1.51,0.755-3.343,1.132-5.499,1.132c-2.121,0-3.936-0.36-5.445-1.078
		c-1.51-0.719-2.732-1.68-3.666-2.884c-0.935-1.204-1.618-2.623-2.049-4.259c-0.431-1.635-0.647-3.37-0.647-5.203
		c0-1.797,0.251-3.504,0.755-5.122c0.503-1.618,1.258-3.027,2.264-4.232c1.006-1.204,2.255-2.165,3.747-2.884
		c1.491-0.719,3.243-1.078,5.256-1.078c2.084,0,3.873,0.36,5.364,1.078c1.491,0.719,2.704,1.68,3.639,2.884
		c0.934,1.205,1.617,2.597,2.049,4.178C188.16,22.069,188.376,23.74,188.376,25.501z M183.524,25.555
		c0-1.114-0.099-2.219-0.296-3.316c-0.198-1.096-0.548-2.084-1.051-2.965c-0.504-0.88-1.204-1.59-2.103-2.13
		c-0.899-0.539-2.067-0.809-3.504-0.809c-1.366,0-2.507,0.27-3.424,0.809c-0.917,0.539-1.644,1.249-2.183,2.13
		c-0.539,0.881-0.926,1.869-1.159,2.965c-0.234,1.097-0.35,2.202-0.35,3.316c0,1.114,0.098,2.237,0.296,3.369
		c0.197,1.132,0.566,2.166,1.105,3.1c0.539,0.935,1.258,1.698,2.157,2.291c0.898,0.593,2.049,0.89,3.45,0.89
		c1.437,0,2.623-0.296,3.558-0.89c0.934-0.593,1.653-1.348,2.156-2.264c0.503-0.917,0.853-1.949,1.051-3.1
		C183.425,27.801,183.524,26.669,183.524,25.555z"/>
	<path fill="#FFFFFF" d="M208.917,36.121c-0.288,0.288-0.647,0.612-1.078,0.971c-0.431,0.36-0.943,0.683-1.536,0.971
		c-0.593,0.287-1.267,0.53-2.022,0.728c-0.755,0.197-1.582,0.296-2.48,0.296c-1.402,0-2.749-0.234-4.043-0.701
		c-1.294-0.467-2.435-1.213-3.423-2.237c-0.989-1.024-1.771-2.372-2.345-4.043c-0.575-1.671-0.863-3.711-0.863-6.119
		c0-2.372,0.287-4.421,0.863-6.146c0.574-1.725,1.348-3.135,2.318-4.232c0.971-1.096,2.103-1.914,3.397-2.453
		c1.294-0.539,2.659-0.809,4.097-0.809c1.725,0,3.154,0.261,4.286,0.782c1.132,0.522,2.076,1.178,2.831,1.968
		c0.179-0.79,0.593-1.375,1.24-1.752c0.647-0.378,1.275-0.566,1.887-0.566c0.179,0,0.377,0,0.593,0c0.216,0,0.467,0.036,0.755,0.108
		v23.614c0,2.192-0.189,4.142-0.566,5.85c-0.377,1.706-1.034,3.154-1.968,4.34c-0.935,1.186-2.193,2.093-3.774,2.722
		c-1.582,0.629-3.577,0.944-5.984,0.944c-1.725,0-3.208-0.162-4.448-0.485c-1.24-0.324-2.274-0.72-3.1-1.186
		c-0.647-0.396-1.105-0.773-1.375-1.132c-0.27-0.36-0.404-0.737-0.404-1.132c0-0.468,0.206-0.989,0.62-1.563
		c0.413-0.576,0.782-1.043,1.105-1.402c0.072,0.108,0.305,0.314,0.701,0.62c0.395,0.305,0.925,0.638,1.59,0.997
		c0.665,0.359,1.446,0.674,2.345,0.943c0.898,0.27,1.887,0.404,2.965,0.404c1.725,0,3.1-0.243,4.124-0.728
		c1.024-0.485,1.814-1.168,2.372-2.049c0.557-0.881,0.917-1.923,1.078-3.127c0.162-1.205,0.243-2.543,0.243-4.017V36.121z
		 M208.809,19.031h0.054c-0.216-0.216-0.494-0.476-0.836-0.782c-0.342-0.305-0.773-0.611-1.294-0.917
		c-0.522-0.305-1.124-0.557-1.806-0.755c-0.683-0.197-1.456-0.296-2.318-0.296c-2.049,0-3.666,0.764-4.852,2.291
		c-1.186,1.528-1.779,3.819-1.779,6.874c0,1.402,0.108,2.696,0.324,3.882s0.593,2.22,1.132,3.1c0.539,0.881,1.249,1.563,2.13,2.049
		c0.88,0.485,1.968,0.728,3.262,0.728c0.863,0,1.662-0.108,2.399-0.324c0.736-0.216,1.375-0.485,1.914-0.809
		c0.539-0.324,0.952-0.701,1.24-1.132c0.287-0.431,0.431-0.863,0.431-1.294V19.031z"/>
	<path fill="#FFFFFF" d="M221.046,26.471c0.108,2.624,0.8,4.736,2.076,6.335c1.276,1.6,3.243,2.399,5.904,2.399
		c1.006,0,1.905-0.108,2.696-0.324c0.79-0.216,1.473-0.476,2.049-0.782c0.574-0.305,1.051-0.638,1.429-0.998
		c0.377-0.359,0.691-0.682,0.943-0.97c0.395,0.504,0.746,1.043,1.051,1.617c0.305,0.576,0.458,1.024,0.458,1.348
		c0,0.288-0.09,0.585-0.27,0.89c-0.18,0.306-0.485,0.62-0.916,0.943c-0.827,0.612-1.887,1.124-3.181,1.537
		c-1.294,0.413-2.857,0.62-4.69,0.62c-1.69,0-3.28-0.243-4.771-0.728c-1.492-0.485-2.795-1.267-3.908-2.345
		c-1.115-1.078-1.995-2.488-2.642-4.232c-0.647-1.743-0.97-3.872-0.97-6.389c0-2.265,0.332-4.223,0.997-5.877
		c0.665-1.653,1.537-3.01,2.615-4.071c1.078-1.06,2.309-1.841,3.693-2.345c1.383-0.503,2.812-0.755,4.286-0.755
		c1.833,0,3.405,0.306,4.718,0.917c1.311,0.612,2.38,1.429,3.208,2.453c0.826,1.024,1.437,2.21,1.833,3.558
		c0.395,1.348,0.593,2.741,0.593,4.178c0,0.504-0.009,1.016-0.027,1.537c-0.019,0.521-0.063,1.016-0.135,1.482H221.046z
		 M233.662,23.021c0-0.971-0.099-1.868-0.296-2.696c-0.198-0.826-0.531-1.554-0.997-2.184c-0.468-0.628-1.088-1.123-1.86-1.482
		c-0.773-0.359-1.717-0.539-2.83-0.539c-1.869,0-3.406,0.612-4.61,1.833c-1.204,1.222-1.879,2.911-2.022,5.068H233.662z"/>
	<path fill="#FFFFFF" d="M241.964,12.831c0.251-0.035,0.449-0.054,0.593-0.054c0.143,0,0.251,0,0.324,0
		c0.826,0,1.572,0.207,2.237,0.62c0.665,0.414,1.069,1.124,1.213,2.13c0.826-0.826,1.949-1.563,3.369-2.21
		c1.419-0.647,3.1-0.971,5.041-0.971c2.444,0,4.313,0.539,5.607,1.618c1.294,1.078,2.138,2.426,2.534,4.043
		c0.179,0.719,0.287,1.519,0.323,2.399c0.035,0.881,0.054,1.734,0.054,2.561v15.311h-4.583v-15.15c0-0.682-0.009-1.338-0.027-1.968
		c-0.018-0.628-0.117-1.213-0.296-1.752c-0.288-0.934-0.818-1.653-1.59-2.157c-0.773-0.503-1.932-0.755-3.477-0.755
		c-1.043,0-1.977,0.108-2.804,0.324c-0.827,0.216-1.528,0.504-2.102,0.863c-0.576,0.36-1.024,0.773-1.348,1.24
		c-0.324,0.468-0.485,0.935-0.485,1.402v17.953h-4.583V12.831z"/>
	<path fill="#FFFFFF" d="M268.489,38.116c-0.576-0.611-0.863-1.402-0.863-2.372c0-0.934,0.296-1.725,0.889-2.372
		c0.593-0.647,1.321-0.971,2.184-0.971c0.898,0,1.644,0.324,2.237,0.971c0.593,0.647,0.889,1.438,0.889,2.372
		c0,0.935-0.288,1.725-0.863,2.372c-0.575,0.647-1.33,0.971-2.264,0.971C269.8,39.087,269.063,38.763,268.489,38.116z"/>
	<path fill="#FFFFFF" d="M295.552,19.301c-0.612-0.719-1.402-1.393-2.372-2.022c-0.97-0.628-2.283-0.943-3.936-0.943
		c-1.366,0-2.534,0.234-3.504,0.701c-0.97,0.468-1.771,1.124-2.399,1.968c-0.629,0.845-1.087,1.833-1.375,2.965
		c-0.288,1.132-0.431,2.345-0.431,3.639c0,1.33,0.143,2.579,0.431,3.747c0.287,1.168,0.746,2.183,1.375,3.046
		c0.628,0.863,1.446,1.546,2.453,2.049c1.006,0.504,2.21,0.755,3.612,0.755c0.971,0,1.841-0.152,2.615-0.458
		c0.773-0.305,1.429-0.656,1.968-1.051c0.719-0.467,1.294-0.971,1.725-1.51c0.143,0.144,0.314,0.333,0.512,0.566
		c0.197,0.234,0.395,0.485,0.593,0.755c0.197,0.27,0.359,0.548,0.485,0.836c0.126,0.288,0.189,0.557,0.189,0.808
		c0,0.504-0.377,1.078-1.132,1.725c-0.683,0.612-1.663,1.132-2.938,1.563c-1.276,0.431-2.83,0.647-4.663,0.647
		c-1.151,0-2.418-0.162-3.801-0.485c-1.384-0.324-2.678-0.971-3.882-1.941c-1.204-0.97-2.22-2.327-3.046-4.07
		c-0.827-1.743-1.24-4.052-1.24-6.928c0-2.659,0.431-4.852,1.294-6.577s1.922-3.081,3.181-4.07c1.258-0.988,2.596-1.68,4.016-2.076
		c1.419-0.395,2.669-0.593,3.747-0.593c1.294,0,2.453,0.135,3.477,0.404c1.024,0.27,1.905,0.612,2.642,1.024
		c0.736,0.414,1.302,0.854,1.698,1.321c0.395,0.468,0.593,0.916,0.593,1.348c0,0.431-0.144,0.916-0.431,1.455
		c-0.288,0.539-0.575,1.007-0.863,1.402H295.552z"/>
	<path fill="#FFFFFF" d="M324.234,25.501c0,1.762-0.216,3.46-0.647,5.095c-0.431,1.636-1.124,3.082-2.076,4.34
		c-0.952,1.259-2.183,2.265-3.693,3.019c-1.51,0.755-3.343,1.132-5.499,1.132c-2.121,0-3.936-0.36-5.445-1.078
		c-1.51-0.719-2.732-1.68-3.666-2.884c-0.935-1.204-1.617-2.623-2.049-4.259c-0.431-1.635-0.647-3.37-0.647-5.203
		c0-1.797,0.251-3.504,0.755-5.122c0.503-1.618,1.258-3.027,2.264-4.232c1.006-1.204,2.255-2.165,3.747-2.884
		c1.491-0.719,3.243-1.078,5.257-1.078c2.084,0,3.872,0.36,5.364,1.078c1.491,0.719,2.704,1.68,3.639,2.884
		c0.934,1.205,1.618,2.597,2.049,4.178C324.018,22.069,324.234,23.74,324.234,25.501z M319.382,25.555
		c0-1.114-0.099-2.219-0.296-3.316c-0.198-1.096-0.548-2.084-1.051-2.965c-0.504-0.88-1.204-1.59-2.102-2.13
		c-0.899-0.539-2.067-0.809-3.504-0.809c-1.366,0-2.507,0.27-3.424,0.809c-0.916,0.539-1.644,1.249-2.183,2.13
		c-0.539,0.881-0.926,1.869-1.159,2.965c-0.234,1.097-0.35,2.202-0.35,3.316c0,1.114,0.099,2.237,0.296,3.369
		c0.197,1.132,0.566,2.166,1.105,3.1c0.539,0.935,1.258,1.698,2.157,2.291c0.898,0.593,2.049,0.89,3.45,0.89
		c1.437,0,2.623-0.296,3.558-0.89c0.934-0.593,1.653-1.348,2.157-2.264c0.503-0.917,0.854-1.949,1.051-3.1
		C319.282,27.801,319.382,26.669,319.382,25.555z"/>
	<path fill="#FFFFFF" d="M328.223,12.831c0.287-0.035,0.512-0.054,0.674-0.054c0.162,0,0.278,0,0.351,0
		c0.934,0,1.698,0.225,2.291,0.674c0.593,0.45,0.961,1.142,1.105,2.076c0.826-0.863,1.914-1.608,3.262-2.237
		c1.348-0.628,2.938-0.943,4.771-0.943c0.647,0,1.312,0.063,1.995,0.189c0.682,0.126,1.348,0.324,1.995,0.593
		c0.647,0.27,1.24,0.62,1.779,1.051c0.539,0.431,0.97,0.935,1.294,1.51c0.826-0.898,1.949-1.68,3.37-2.345
		c1.419-0.665,3.046-0.998,4.879-0.998c2.372,0,4.196,0.539,5.472,1.618c1.275,1.078,2.093,2.426,2.453,4.043
		c0.179,0.719,0.287,1.519,0.323,2.399c0.035,0.881,0.054,1.734,0.054,2.561v15.311h-4.583v-15.15c0-0.682-0.009-1.338-0.027-1.968
		c-0.019-0.628-0.117-1.213-0.297-1.752c-0.252-0.934-0.755-1.653-1.51-2.157c-0.755-0.503-1.941-0.755-3.558-0.755
		c-1.186,0-2.291,0.252-3.316,0.755c-1.024,0.504-1.788,1.061-2.291,1.671c0.072,0.612,0.126,1.249,0.162,1.914
		c0.035,0.665,0.054,1.357,0.054,2.076v15.365h-4.583v-15.15c0-0.755-0.036-1.464-0.108-2.13c-0.073-0.665-0.198-1.267-0.378-1.806
		c-0.612-1.797-2.229-2.696-4.852-2.696c-0.791,0-1.555,0.108-2.292,0.324c-0.737,0.216-1.393,0.504-1.968,0.863
		c-0.575,0.36-1.043,0.764-1.402,1.213c-0.36,0.45-0.539,0.889-0.539,1.321v18.061h-4.583V12.831z"/>
</g>
</svg>
